<svg version="1.0" xmlns="http://www.w3.org/2000/svg" width="1706.667" height="1256" viewBox="0 0 1280 942"><path d="M33.1 4.1C28.3 10.7 22.8 29.2 16 61.5c-1.7 8.2-4.4 20.4-6 27C-2.6 140.6-3.2 222.8 8.6 281c3.6 17.9 7.7 31.8 15.9 53.5 16.8 44.4 33.3 76 52.6 100.8l4.7 6.1-3.4 4.1c-26.5 31.2-45.7 58.8-52.1 74.8-1.3 3.4-3.1 7.8-4 9.7-3.6 7.6-1.2 39 5.3 71 5.5 27 14.7 57.4 22.7 75 4.4 9.7 11 20.4 16.9 27.3 3 3.5 3.3 4.5 3.2 10 0 4.6-.9 8.3-3.3 14.2-6 14.5-9.2 24.6-10.2 32.5-2.4 17.8 3.8 35.1 18.8 52.6 10.2 11.8 13.9 16.5 15.7 20.1 2.6 5.1 4.4 14.6 6.1 31.8 1.9 19.5 3.4 25.4 9 37.1 7.2 14.8 15.7 22.3 30.5 26.9 9.2 2.8 31.8 3.1 57.1.6 11.9-1.2 24.6-2.1 28.2-2.1 4.5 0 6.7-.4 6.7-1.2 0-3.1-7.5-36.3-9.7-43.2-5-15.1-13.7-24.9-23.1-26.1-6.7-.9-9.6-2.2-11.9-5.3-8.2-11.1-13.3-32.3-13.3-55.3 0-26 7.2-37.3 38.4-59.4 12.4-8.9 27.6-22.4 27.6-24.7 0-2.8 5-.2 50 26.3 49.9 29.3 67 38.2 86 44.7 9.3 3.2 11.6 3.7 20.6 3.7 9.2 0 10.4-.2 14.1-2.7 4.7-3.1 7.1-7.7 8.6-16.4l1.1-6.4h6.1c8.2 0 30.6 3.4 46.7 7.1 18 4 30.4 7.4 70.3 19.1 89.5 26.2 113.9 30.4 183.7 31.5l36.7.6.5 2.3c1.1 4.4 10.6 17.2 18.1 24.2 4.1 4 8 7.2 8.5 7.2.6 0 1 3.3 1 7.9 0 16.7 4.6 42.4 9.3 52.1 2.9 5.9 7.8 8.3 30.7 15 19 5.7 27.4 9.1 29.3 12.1 1.5 2.5 3.8 2.4 7.1-.2 3.2-2.5 5.6-6.9 5.6-10.4V927h62.3l-.6-7.3c-.6-8.1-1.4-10.4-5.7-16.2-1.6-2.2-2.9-4.8-3-5.7 0-1-3.4-4-8.3-7.3-25.5-16.9-38.2-32-43.6-51.5-4.3-15.3-4.8-33.6-1.9-59.3l1.1-9.8 10.6-6.3c5.8-3.5 18.7-11 28.6-16.6 44.7-25.6 63.7-42.2 72.6-63.4 1.2-3 3-5.7 3.9-5.9 1-.3 2.1-1.9 2.5-3.6.9-4.2 12.7-21.6 18-26.6 8.9-8.3 15.8-28.1 15.4-44.5-.5-21.4-.3-29.7 1-34 1.3-4.2 1.9-4.7 9.1-8.3 10.4-5.1 19.1-13 23-21.1l3.2-6.4-1-13.8c-1.2-18.2-.7-21.2 4.1-25.4 2.1-1.8 6.9-8 10.8-13.8 3.9-5.9 8.1-11.1 9.2-11.7 1.2-.6 2.7-2.1 3.3-3.3.6-1.3 2.1-3.3 3.2-4.5 2.8-2.9 7.8-15 9.7-23.1.8-3.6 2.4-13.1 3.5-21.3 2.7-20.2 5.8-30.1 10.9-34.7 1.8-1.7 3.1-1.8 10.8-1.2 4.9.3 10.9.9 13.5 1.2 4.7.6 4.7.6 11.1-5.4 8.9-8.6 13.3-10.3 28.8-11.3 19.1-1.1 26.9-2.9 38.4-8.6 9.1-4.5 15.1-9 21.7-16.1 11.5-12.5 20.3-29.2 25.7-49 1.1-4.1 4.7-12.2 7.9-18 6.2-11.1 9.2-18.5 9.2-22.7 0-5.6-25.2-21.2-46-28.5-11.3-3.9-18.7-5.9-46.7-12.5-28.4-6.7-47.4-12.4-50.7-15.3-1.8-1.6-9.7-17-14.4-27.9-2.9-6.7-9.9-11.5-26.5-17.9-6.7-2.6-14.2-6-16.7-7.5-20.8-12.7-47.7-13-101.3-1.4-6.5 1.4-18.8 3.7-27.5 5.1-10.2 1.7-16.8 3.3-18.9 4.5-4.6 2.8-13.3 12.7-20.5 23.3-7.2 10.5-14.9 19.8-39.1 47.6-23 26.3-22.8 26-45.8 62-23.2 36.3-33.3 52.9-39.4 64.9l-4.4 8.9-11.4 6c-6.3 3.3-14.5 8-18.3 10.6-7.5 5-10.2 5.6-12.8 2.7-2.7-3-6.5-3.4-12.7-1.3-13.7 4.8-19 9.6-20.9 18.9-2.9 14.9-3.8 15.6-12.8 11.4-7.2-3.3-13.7-4-16.4-1.9-.8.7-2.9 3.4-4.7 6-4 5.9-7.7 7.3-15.7 5.9-10.8-2-11-2-20 7.4-9.1 9.6-11 10.2-19.3 6.5-5.6-2.6-5.8-2.6-12.7 1.1l-5.9 3.2-25.5-.6c-36.4-.9-61.1-3.8-102-12.2-24.5-4.9-54.2-10.1-69-12-73.4-9.1-119-14.1-152-16.7-20.5-1.6-79.8-1.5-93.5.1l-10 1.2-13.6-13.8C81.1 325.5 58.9 284.4 55 234c-.9-12.4-.3-29.4 2.6-75 2.3-35.4 2.4-91.1.1-108.1-3-22.5-8.5-39.8-15.1-47.7-3.7-4.3-6-4.1-9.5.9z"/></svg> 122
-245 49 -542 101 -690 120 -734 91 -1190 141 -1520 167 -205 16 -798 15 -935
-1 l-100 -12 -136 138 c-518 528 -740 939 -779 1443 -9 124 -3 294 26 750 23
354 24 911 1 1081 -30 225 -85 398 -151 477 -37 43 -60 41 -95 -9z"/>
</g>
</svg>
