<svg xmlns="http://www.w3.org/2000/svg" viewBox="0 0 476.127 476.127"><path d="M88.72 192.388C38.476 200.564 0 244.263 0 296.779c0 58.318 47.445 105.763 105.763 105.763h132.3V73.585c-72.071 0-133.604 50.031-149.343 118.803z" fill="#bddbff"/><path d="M387.407 192.388c-15.739-68.772-77.271-118.804-149.343-118.804v328.958h132.3c58.318 0 105.763-47.445 105.763-105.763 0-52.516-38.476-96.215-88.72-104.391z" fill="#9bc9ff"/></svg>.476,200.564,0,244.263,0,296.779c0,58.318,47.445,105.763,105.763,105.763h132.3
		V73.585C165.992,73.585,104.459,123.616,88.72,192.388z"/>
	<path style="fill:#9BC9FF;" d="M387.407,192.388c-15.739-68.772-77.271-118.804-149.343-118.804v328.958h132.3
		c58.318,0,105.763-47.445,105.763-105.763C476.127,244.263,437.651,200.564,387.407,192.388z"/>
</g>
<g>
</g>
<g>
</g>
<g>
</g>
<g>
</g>
<g>
</g>
<g>
</g>
<g>
</g>
<g>
</g>
<g>
</g>
<g>
</g>
<g>
</g>
<g>
</g>
<g>
</g>
<g>
</g>
<g>
</g>
</svg>
