<svg version="1.0" xmlns="http://www.w3.org/2000/svg" width="853.333" height="1706.667" viewBox="0 0 640 1280"><path d="M254.8 1.6c-3.3 1.7-3.5 4.4-1.3 11.6.8 2.7 2.1 10.3 3 17 2.8 20.6 9 44 13.7 51.6 1.1 1.8 1.8 3.6 1.5 3.9-1.2 1.1-14.9-3-19.2-5.9-6.7-4.5-13.4-12.4-17.4-20.8-3.3-6.9-3.6-8.2-3.6-16.9 0-8.4-.2-9.5-2.1-10.7-1.8-1.3-2.5-1.2-5.5.9-4.3 2.9-4.7 5.7-1.5 9.9 1.3 1.8 3.8 6.8 5.5 11.1 1.6 4.3 4.2 9.9 5.7 12.4C237.9 73.1 247.7 82 257 87c4.6 2.5 8.5 5 8.7 5.7.6 1.7-5.8 2.7-13.8 2-4.7-.4-8.9-1.6-14.1-4-8.3-3.9-12.1-7.5-14.1-13.2-1-2.8-2.2-4.3-4.2-5-2.4-.8-3-.6-5.2 1.9-1.3 1.6-2.3 3.8-2.1 4.9.3 2.1.7 2.4 6.9 5 1.9.8 5.6 3.3 8.2 5.5 6.7 5.8 14.2 8.4 26.2 8.9 5.5.3 13.4 0 17.5-.5s7.7-.8 7.9-.6c.2.2-.4 6.1-1.3 13.1S276 128 276 133.5c0 13.7 2.5 38.9 5.5 57 1.4 8.2 2.8 20.7 3.2 27.8.7 14.6.5 15-7.9 19.3-6.7 3.4-8.8 3.1-14.8-2-2.8-2.4-7.8-5.3-11-6.5-3.2-1.2-8.6-4.2-12-6.7-7.7-5.9-24.5-23.7-35.6-37.9C196 175 170 137 170 135.7c0-.3 2.1-1 4.6-1.6 6.7-1.7 15.4-6.4 19.1-10.3 4.4-4.6 11-17.3 12.4-23.8.6-3 2-7 3.1-8.8 2.6-4.3 1.8-7.6-2.3-9.3-6.3-2.5-11.3 3.8-7.5 9.3 2.7 3.8 2 9.8-2 17.7-5.9 11.8-16.4 21.1-23.9 21.1-3.3 0-3.2-.8.9-6.9 10.3-15.2 13.6-43.4 7.2-60.6-1.5-3.8-2.6-8.8-2.6-11.6 0-5.4-2-8.4-6.4-9.5-3.9-.9-6.6 1.1-6.6 5.1 0 2.7.9 4.3 4.9 8.2 6.3 6.2 8.2 12 8.8 27.4.7 16.3-2.5 29.2-9.4 37.8-2.5 3.1-3.8 2.3-5.9-4.2-2.3-7.2-7.4-17.2-15.5-30.5-7.4-12-13.9-24.2-13.9-26 0-1.6-3.4-3.2-6.9-3.2-5.8 0-8.2 6.2-3.3 8.6 9.1 4.5 31.7 39 36.7 55.9 1.4 4.5 1.4 5.1-.1 6.2-2 1.5-8.3-.3-15-4.2-12.1-7.1-28.4-28.3-28.4-36.9 0-4.5-2.4-7-5.9-6.1-2.9.7-6.1 3.3-6.1 4.8 0 .5 2.1 3.5 4.8 6.5 2.6 3 7.3 8.7 10.5 12.6 8.3 10.1 15.2 17.1 23 23.3 3.7 3 6.5 5.8 6.2 6.3-2.1 3.5-23.9 1.5-33-3C106 124.3 92 110 92 103.9c0-1.8-1-4-2.4-5.4-2.2-2.2-2.9-2.3-5.3-1.4-3.4 1.3-6.3 3.8-6.3 5.4 0 .7 1.5 2.4 3.3 3.8 1.8 1.4 7.1 6.3 11.7 10.9 9.3 9.2 14.9 13.3 22.5 16.5 6.1 2.6 17.3 5 27.8 5.9 4.2.4 7.7 1 7.7 1.4 0 1.2-17.2 8.7-22.5 9.8-5.8 1.2-11.2.3-15.1-2.4-6.4-4.6-8.1-5.4-11.1-5.4-6.1 0-8.5 6.2-3.2 8.7 4.3 2.1 16.9 3.5 26.9 3.1 11-.4 15.7-2.2 29.7-11.3 4.7-3.1 8.9-5.3 9.3-4.8.4.4 4.2 6 8.5 12.3 19.6 28.8 36.5 49.7 60.3 74.5 18.5 19.3 22.2 24.9 20.2 30.9-1.6 4.8-4.5 6.4-16.3 8.5-5.6 1-11.9 2.6-14.1 3.5-2.1.9-5.2 1.6-6.8 1.6-6.7 0-47.6-13.8-69.4-23.3-7.7-3.4-26-13.3-28.2-15.2-.1-.1 2.5-3.6 5.8-7.7 3.3-4.2 6.7-9.2 7.5-11.2 2.1-4.9 2.1-36.1.1-41.1-2.5-6-8.3-7.2-11.9-2.4-2.5 3.5-1.2 6.1 4.6 9 2.3 1.2 4.5 2.7 4.9 3.3 1.2 1.7.9 15.8-.3 21.8-2.4 11.3-10.1 23-13.1 20-.6-.6-1.4-8.7-1.8-18.1-.7-15.5-1-17.6-3.4-22.4C105.8 170.8 83 146 77.9 146c-2.4 0-4.9 3.8-4.9 7.2 0 2.4.5 2.8 3.8 3.3 2 .4 4.9.9 6.4 1.1 5.7 1.1 15.8 12.5 22 24.9 5.8 11.4 8.6 27.3 5.8 32.6-1.5 2.8-2.6 2.4-8.2-2.6-2.7-2.4-9.9-7.3-16-10.7-6.1-3.5-13.3-8.2-15.9-10.6-3.7-3.3-5.5-4.3-7.6-4-3.3.4-5.4 4-4.6 7.9.4 2.3 1.2 2.6 7.3 3.7 12.4 2.1 27.8 10.7 36.4 20.3 4.9 5.4 5.6 7.8 3 9.9-2.2 1.9-18.6-.4-29.3-4.2-20-7-38.9-18.5-42-25.6C33 196.8 32 196 30 196c-3.8 0-8.2 4.3-7.8 7.6.3 2.4 1 2.8 6.8 4.3 3.9 1 8.9 3.3 12.5 5.7 15.2 10.4 32.7 16.6 53.7 18.9 3.2.4 6.1 1.1 6.4 1.7 1 1.6-8.7 10.7-14.4 13.4-7.1 3.4-20 4.9-29.9 3.6-9.4-1.3-12.9-3.5-14.7-9.5-.8-2.7-7.1-2.3-10.1.8-3.3 3.2-3.1 5.1.6 7.4 4.8 3 14.5 4.2 32.7 4.2 18.2 0 21-.5 29.9-6 2.7-1.7 5.3-3.1 5.7-3.1 1.9 0-.2 3.1-7.1 10.1-11.2 11.5-21.7 16.3-27.9 12.6-1.2-.6-3.1-1.8-4.2-2.4-1.8-1.1-2.5-.9-5.1 1.3C55.4 268 54 270 54 271c0 2.5 5.8 7.3 7.9 6.5.9-.4 6.4-2.2 12.2-4.1 8.8-2.9 11.8-4.5 17.1-8.8 7.8-6.4 15.5-15.9 19.7-24.3l3.1-6.2 7.6 4.5c26.6 15.7 71.4 32.2 106.9 39.4 6.1 1.2 11.7 2.6 12.6 3.1 2.4 1.2 3 5.8 1.3 9.8-3.6 8.5-18.6 22-30.9 27.7-19 8.8-63.7 19-91.7 20.9l-9.6.7-2.1-7.3c-4.6-16.1-8.4-23.3-16.3-30.5-6.1-5.7-11.6-8.7-23.6-13-5.7-2-11.9-4.8-13.8-6-4.1-2.8-6.1-3-9.2-.8-1.9 1.3-2.3 2.3-2 6.2.4 5.5 1.5 6.1 9.3 4.2 4.3-1 6.1-1 11.3.4 8.9 2.3 20.2 7.7 25 12 4.5 4.1 14 21.2 12.5 22.7-.5.5-3-.7-5.8-2.7-16.1-11.7-35.8-15.8-57.6-11.9-12.8 2.2-16.3 3.7-16.7 6.9-.8 6.4 4.8 7.4 12.2 2.1 2.7-1.9 6.6-4 8.5-4.5 5.4-1.5 18.7-1.2 26 .6 8.5 2 21.8 8.4 26.2 12.5 3 2.8 3.2 3.2 1.6 4.4-.9.6-5.4 1.5-9.9 1.8-4.6.4-13.7 2-20.3 3.6-6.6 1.6-14 3.2-16.5 3.6-8.4 1.3-11.3 5.2-7 9.5 2.8 2.8 5 2.5 10.1-1.4 7.8-6.1 23.3-10.6 36.4-10.6 7 0 10.5 1.2 10.5 3.5 0 6.3-27.5 23.3-45.5 28-3.3.8-11.5 2.2-18.3 2.9-6.7.8-12.9 2-13.8 2.7-2.4 1.9-1.4 6.2 1.8 7.3 2 .7 4.2.4 9-1.3 3.5-1.3 13.2-4.5 21.5-7.1 17.8-5.6 28.5-10.7 40-19l8.3-5.9v5.9c0 10.2-5.6 22.3-14.9 32.3-5.9 6.3-10.1 8.4-20.2 9.9-7.4 1.2-8.5 1.6-9.9 4-1.3 2.5-1.3 3.1 0 5.5 2.1 3.7 5.5 4.1 8.9 1 1.4-1.4 6.7-5 11.7-8.1 9.7-5.9 19.1-14.9 23.7-22.8 1.4-2.5 3.8-8.8 5.3-14.2 1.5-5.3 3.1-9.6 3.6-9.6s1.6 1.7 2.5 3.7c1.2 2.9 1.4 6.5 1.1 15.8-.5 15.5-2.7 20.6-10.2 24.5-5.3 2.7-7.1 6.1-6 10.7.5 1.8 1.3 2.3 3.8 2.3 6 0 7.4-1 9.2-5.9.9-2.5 2.6-6.8 3.7-9.5 2-4.5 2.2-6.7 2.2-22.5 0-14.7-.3-18.4-1.8-22.4-1.1-2.6-1.7-5.4-1.4-6.1.7-1.7 9-3.6 15.7-3.6 11.1 0 32.1-5.1 73.3-17.7 28.4-8.6 40.4-11.5 45.3-10.5 1.6.3 3.3 1.6 4.3 3.5.9 1.6 4.1 5.9 7.1 9.4l5.4 6.5-3.8 11.2c-2.2 6.1-4.7 12.7-5.7 14.7-4.7 9.5-28.1 34.9-49.4 53.8-15.4 13.6-28.8 24.1-30.9 24.1-.9 0-2.8-2.5-4.7-6.2-6.7-13.2-11.8-17.2-29.7-23.6-16.2-5.7-18.4-6-21.1-3.3-3.7 3.7-1.9 11.1 2.7 11.1.9 0 3.3-1 5.2-2.1 10.4-6.4 34.5 6.3 39.4 20.8.9 2.5 1.4 4.8 1.2 5-.2.3-3-.9-6.2-2.5-8.8-4.4-15.8-6.2-27-6.9-13.2-.8-24.7 1-35.2 5.3-4.6 1.9-10.5 3.9-13.2 4.5-3.9.8-4.9 1.5-5.4 3.5-.4 1.4-.1 3.7.7 5.2 1.7 3.6 5.3 3.3 10.9-.8 14.2-10.3 18.6-12.3 30.1-14.1 10.5-1.6 25.7 1.6 34 7.3 3.7 2.6 3.4 4.5-1 6.4-10.8 4.5-15.2 7.3-36.3 23.4-5.8 4.4-12.9 9-15.7 10.2-5 2-5.3 2.4-5.3 5.8 0 8.4 6.7 10.8 10.4 3.6 5.8-10.9 46.1-41.6 54.7-41.6 2.5 0 3.1 2.8 1.9 9-1.5 8-6.3 15-17.2 25.6-7.4 7.1-11.5 10.1-16.8 12.6-5.2 2.4-7.2 3.9-7.7 5.7-.7 2.9.7 5.5 3.4 5.9 5.9.9 30.1-23.8 39.2-40 6.3-11.1 8.4-10.2 8.9 3.5.5 11.7-1.5 20.4-7.3 32.3-5.3 10.9-9.9 15.5-17.9 17.8-5.6 1.7-7.6 3.6-7.6 7.5 0 5.4 8.8 8.4 11.1 3.8.6-1.2 4-6.1 7.5-10.8 14.6-19.8 18.1-28.7 19.2-49.9l.7-13.5 4.2 6.3c5.2 7.8 6.7 12.6 6.7 21.7-.1 5.2-.7 8.6-2.7 13.4-3.3 7.8-3.4 10.5-.5 12.5 5.6 3.9 8.3-4.4 7.6-23-.7-16.2-1.9-19.1-15.3-37.7l-3.5-4.9 2.3-2.7c1.2-1.5 8.8-8.5 17-15.7 18.9-16.6 41.2-39 56.9-57.4 12.9-15 18.3-20.4 22.5-22.3 3.1-1.4 3.7-.5 5.8 8.8.8 3.9 3 10 4.8 13.5 3.2 6.4 3.2 6.6 3.1 20.5-.3 29.3-5.9 86.8-9.4 95.9l-.9 2.4-7.7-3c-14.7-5.7-25.6-4.8-42.9 3.6-10.5 5.1-13.5 7.6-13.5 11.4 0 3.5 1.7 5.2 5.1 5.2 3 0 4.4-1.4 5.4-5.3 1.9-7.4 14.9-13.2 29.6-13.2 7.7 0 9 .3 12.7 2.8 5.4 3.5 5.5 5.7.4 5.7-8.7 0-21.7 6.6-32 16.3-6.7 6.3-11.5 12.8-17 22.7-2.2 4.2-5.2 8.6-6.6 9.9-3.4 3.2-3.4 7.4-.1 10.6 2.9 3 4.9 3.1 7.5.5 1.6-1.6 2-3.3 2-8.3 0-4.8.7-7.6 2.9-12.2 3.3-6.9 10.6-17 15.6-21.3 7.8-7 25.7-15.4 27.9-13.2.6.6-.5 6.1-3.2 15.7-2.3 8.1-5.1 19.2-6.2 24.6-3 15-5 21.9-7.1 25.3-2.6 4.3-2.4 8.5.4 11.2 2.5 2.4 6.2 2.9 7.3 1.1.4-.6 1.1-7.3 1.5-14.8 1.6-25.4 4.4-39.1 10.5-51.9 5.6-11.7 9.8-12.1 13.1-1.3 1.4 4.4 1.8 9.4 1.8 23.1 0 21.2-.5 23.8-5.3 28.4-4.1 4-3.9 5.2 1.1 9 3.6 2.7 5.2 1.1 6.7-6.7 2-10.6 2.5-44.2.7-51.4-2-8.8-.7-9.6 6.7-4.1l5.6 4.1v178.6c0 166-.9 350.8-2.6 516.8l-.7 69.3H328l.1-288.3c0-270.6 1-441 2.5-448.5.5-2.4 1.4-3.6 3.8-4.6 6.1-2.6 7.5-11.3 2.1-12.9-4.9-1.5-5.9-2.2-6.9-5.3-1.1-3.5-1.4-150.4-.3-158.4.4-3 1.2-6.2 1.7-7 1.5-2.4 4.4.2 5.2 4.7.3 2.1 2.9 8.4 5.7 13.9 2.8 5.4 7.5 16.5 10.5 24.5 10.1 26.9 20.9 49.2 34.6 71 8.2 13.1 8.7 16 3 17-7.9 1.3-23.9 10.5-28.3 16.3-1.4 1.8-3.8 6.1-5.5 9.7-1.6 3.5-4.3 8.1-6.1 10.3-4.9 6.1-3.9 13.6 1.9 13.6 4.1 0 5.8-3 6.9-12.7 1.1-10 3.7-15.8 9.7-21.3 4.4-4 14.5-9.5 16.3-8.8.5.2-1.5 5.7-4.5 12.2-3 6.5-6 14.1-6.5 16.9-1.2 5.3-.7 39 .5 41.9 1.1 2.4 6.4 4.4 8.5 3.1 2.9-1.8 2.5-6.6-1.3-13.6-2.4-4.6-3.6-8.5-4.1-13.1-1.5-13.6 4.2-33.5 11.8-41.4 5.4-5.6 6.9-4 8.1 8.3 1.2 11.2 4.4 23.9 10.4 40 3 8.2 6.5 18.1 7.7 22 2.4 7.9 5.1 9.9 10 7.7 4.2-2 3.4-6.3-2.4-12.5-7.3-7.8-12.3-18.3-17.2-36.2-4.8-17.8-5-36.5-.5-36.5 2.8 0 8 5.7 12.7 13.6 6.7 11.4 10 20.5 10.8 29.6.8 9.8 1.9 11 6.9 8.2 2-1.2 3.8-3.1 4-4.2.2-1-1-4.2-2.7-7-1.6-2.7-6.2-11.4-10.1-19.2-4-7.8-9.3-16.7-11.7-19.7l-4.5-5.5 6.8.3c5.8.4 8.6 1.2 17.4 5.6 6.1 2.9 12.3 6.8 14.7 9.1 5.5 5.3 13.2 20.8 14 28.2.7 7 1.8 9 4.8 9 8.7 0 7.2-6-6.9-27.7-9-14-16.7-19.8-37.8-28.8-4.9-2.1-8.8-4.1-8.8-4.6s2.6-1.6 5.7-2.5c17.2-5 45.2 4.3 51.7 17.2 3.8 7.4 7.3 10.1 10.9 8.2 1.4-.7 1.7-1.9 1.5-5.1-.3-4.1-.5-4.3-11.3-11.5-16.2-10.8-19-11.9-32-12.7-6-.3-15.2-.2-20.3.3-8.1.8-10 1.4-13.8 4.1-2.5 1.7-5 3.1-5.7 3.1-3.5 0-15.2-19.1-29.6-48-16.1-32.5-20-46.5-20.3-72.7-.1-11.8.1-14.5 1.5-16.7 1-1.5 2.7-2.6 3.9-2.6 1.2 0 6.3 2.2 11.4 4.9 5.1 2.8 11 5.4 13.1 6 2.2.6 10 4.7 17.4 9.2 23.4 14 52.8 27.6 76.9 35.5 7.4 2.5 14.1 4.7 14.7 4.9.9.3 0 2.5-2.7 6.6-7.9 12.2-10.6 27.8-7.7 43.6.9 4.8 2 11 2.4 13.8.7 4.5 1.1 5 3.5 5.3 8.4 1 9.3-7.3 1.7-15.3-7.7-8.2-7.8-25.1-.2-37.4 4.6-7.3 5.8-6.6 5.9 3.1 0 14.6 2.9 22.8 11.9 33.8 6.5 7.9 21.8 23 23.4 23 1.7 0 6.1-4.6 6.1-6.4 0-2-5.7-6.6-8.3-6.6-9.1 0-22.4-15-26.2-29.5-1.7-6.8-2-20.1-.4-21.1.6-.3 2.6.7 4.4 2.2 19.5 16.8 23.7 19.7 41.8 29.3 6.5 3.5 13.8 7.8 16.2 9.7 5.1 3.8 8.9 4.4 10.5 1.5 3.1-5.8-.5-9.7-9.3-10.3-10-.6-26-9.1-43.1-22.8-10.3-8.3-15.8-15.3-15.4-19.4l.3-3.1 6.5.1c10.2.1 27 8 36.9 17.3 6.2 5.9 7.7 6.6 10.6 4.7 6-3.9 1.7-8.9-13-15.2-11.8-4.9-28.8-10.8-34.8-11.9-5.7-1.1-6.6-3-2.5-5.5 5-3.1 13.4-6 22.2-7.8 6.5-1.3 9.4-1.4 16.5-.5 12.6 1.6 19.7 4.6 25.2 10.4 6.2 6.7 11.9 6.6 11.9-.2 0-3.7-3.7-5.9-18.6-10.9-10.9-3.6-12.8-4-22.7-4-12.2 0-23.3 2-31.4 5.6-6.5 2.8-7.3 2.9-7.3.8 0-2.5 15.5-17.8 21.3-21 4.7-2.6 6.4-2.9 16.3-3.2 9.8-.4 11.7-.1 16.3 1.9 6 2.5 7.2 2.2 10.8-3.1 3-4.3 2.9-5.8-.4-6.7-4-.9-22.5 1.3-33.7 4.2-21.3 5.3-31 13.9-37 32.5l-2.2 6.5-4.4-.2c-13.1-.4-60.9-20.3-85.7-35.7-11.7-7.2-17.4-12.4-23.3-21.1-2.7-4-6.2-8.4-7.9-9.8-1.7-1.4-3.1-3.3-3.1-4.2 0-1 1.3-4.5 3-8 4.3-8.9 6-9.6 28-10.6 9.6-.5 27.2-1.3 39-1.9 30.5-1.4 38.8-3.4 68-16.2 7.4-3.2 13.9-5.7 14.6-5.4.6.2 2.6 4.8 4.5 10.2 5.7 16.6 13.8 25.3 31.1 33.4 8.8 4.1 15.3 5.1 17.6 2.8.7-.7 1.2-2.7 1.2-4.5 0-4.7-3.6-6.3-8.6-4-6.9 3.3-13.3 1.3-22.7-7.3-5.9-5.3-14.4-16.7-13.3-17.7.3-.3 2.7.8 5.3 2.5 6.5 4.2 16.6 8.6 23.3 10.3 6.8 1.7 28.7 1.7 35-.1 5-1.3 6-2.3 6-6.1 0-5.6-6.5-6.9-10-1.9-4.9 6.9-26.7 7.6-38.7 1.2-5-2.6-20.1-14.9-20.2-16.5-.1-.4 2.9-.7 6.7-.7 14.1 0 39.4-5.5 54.6-12 5-2.1 11.7-4.3 14.9-5 4.2-.8 6.2-1.8 7.3-3.6 1.5-2.2 1.5-2.6.1-4.8-3-4.5-8.8-3.9-14.4 1.7-4 4-17.3 10.7-29.6 14.9-11 3.7-26.5 4.9-38.1 2.8l-7-1.3 6.4-6.1c10.4-9.8 27.2-17.6 38-17.6 4.6 0 6-.4 7.8-2.3 2.6-2.7 2.8-5.9.6-8.1-2.3-2.4-5.6-1.9-10 1.4-2.1 1.7-10 5.9-17.5 9.4-7.5 3.4-16.4 8-19.8 10.1-3.4 2-6.4 3.5-6.7 3.2-1-1 3.6-23.9 5.5-27.5 2.5-4.8 10-13.4 17.7-20.4 8.3-7.5 11.1-9.2 14.7-9 5.9.5 9.9-4.7 6.1-7.9-2.7-2.2-19.6-2.5-25.1-.4s-11.3 1.2-21-3.4c-6.2-3-16.3-11.6-16.3-14 0-1.4.8-1.3 10.5 1.3 7.4 2 19.2 2.1 28.2.1 18.7-3.9 40.3-15 40.3-20.5 0-1.8-5.3-7-7-7-1.5 0-5 5.2-6 8.9-2.6 9.7-29 17.7-49.9 15.2-8.8-1.1-16.1-3.3-16.1-5 0-1.5 2.3-2.8 8-4.6 10.6-3.4 27.4-12.9 36.8-20.8 2.4-2 5.9-3.9 7.8-4.3 2-.4 3.8-1.3 4.1-2 1-2.7-.8-8.4-3.2-10-3.3-2.2-6.1-.4-7.5 4.6-.6 2.1-2.3 5.4-3.8 7.1-5.4 6.5-28 19.4-38.5 22-5.6 1.4-9.7.1-9.7-2.9 0-2.9 6.9-12.8 14.4-20.9 13-14 26-23.6 37.9-28.2 5.7-2.2 2.3-10.1-4.4-10.1-2 0-3.5 1.2-6.5 5.2-2.1 2.9-10.5 11.3-18.7 18.8-13.4 12.3-18.1 17.2-24.3 25.6-1.8 2.4-2.5 2.7-4 1.8-2.8-1.7-3.7-6.9-3.1-19.9.5-13.2 2.7-21.8 7.9-31.8C506.8 99 513 93 516.4 93c3.4 0 5-2.3 3.9-5.7-1.1-3.4-4.8-5.3-8.5-4.6-2.2.4-3 1.3-3.8 4.3-.5 2-2.9 6.6-5.2 10.1-6.3 9.8-9.6 17.9-11.4 28.1-2 11.6-1.5 30.4.9 36.1 1.4 3.3 1.4 3.9.2 4.3-.8.3-2.9-.3-4.8-1.5-7.6-4.7-15-20-15.1-31.4-.1-6.5 0-6.9 3.2-9.5 4.9-4.1 4.5-8.1-1.3-13.8-3.4-3.3-4.5-5.1-4.5-7.4 0-1.9-.6-3.3-1.6-3.7-2.6-1-8.2 2.4-10.7 6.5-3.4 5.2-8.9 9.9-13.4 11.2-6 1.6-14.3 2.2-20.8 1.3-8.5-1.2-8-3.2 1.5-6.1 19-5.9 23.3-8.9 31.8-22.2 3-4.7 7-10.5 8.9-12.9 5.5-7.3 3.7-14.1-3.8-14.1-3 0-3.9 1.9-3.9 8.7 0 13.8-14.1 30.5-29.7 35.3-5.9 1.8-19.3 2.8-19.3 1.5 0-.3 3-4 6.6-8.3 9.6-11.2 11.6-15.3 19.4-39.3 3.8-11.9 7.7-22.2 8.5-22.9 1.7-1.4 2-5.3.5-8-1.1-2-7.7-4.6-8.8-3.5-.4.4-.8 5-.8 10.3-.1 6.9-.9 12.7-2.8 20.1-5 19.6-11.3 31.4-23.2 43.9-5.6 5.9-6.4 6.4-8 5.1-1.4-1.2-1.6-2.7-1.1-11.4.9-14.9 5.4-29.8 10.9-36.3 3.2-3.7 3.5-6.7 1.2-10-1.8-2.7-6.5-2.9-8.9-.5-1.3 1.2-1.5 2.5-1 5.2 1.1 5.6.8 8.8-1.9 17-1.4 4.2-3.4 11.6-4.6 16.6-2.7 11.8-3.8 14.5-6.1 14.5-1.9 0-6.2-5.3-11.9-14.7-9.2-15.2-12.3-39-6.1-47.3 1.1-1.6 2.1-4 2.1-5.4 0-4.6-5.9-8.1-8.9-5.2-1.3 1.4-1.6 3.7-1.4 13.7.6 30.6 6.9 48 22.5 62.2 4.3 3.9 7.6 7.2 7.5 7.4-.8.7-17.5-1.9-21.4-3.3-4.8-1.8-13.8-10.9-16-16.3-1-2.3-1.3-4.9-.8-7.7.5-3.5.2-4.7-1.4-6.3-5.2-5.2-12-2.6-10.1 3.9 1.2 4.2 17.2 25 21.3 27.8 5.3 3.5 12.5 5.9 20.2 6.7 3.9.4 7.6 1.2 8.3 1.7 4.2 3.4-4.3 29.2-20.2 61.3-12.8 25.7-20 37.5-24.3 39.4-1.5.7-5.8 3.3-9.4 5.8-8 5.4-11.3 6.2-25.4 6.3h-11.1l-5.6-9.3c-3.1-5-6.5-11.9-7.6-15.2-4.8-14.3-7.4-39.7-7.4-72.2 0-24 1-32.9 4-35.6.9-.9 6.1-2.3 11.4-3.1 11.3-1.8 16.3-3.6 23.6-8.4 7.1-4.6 12.1-10.8 18.9-23.1 3.1-5.7 6.7-11.7 8-13.2 4.2-4.9 1.8-13.9-3.6-13.9-2.9 0-3.9 1.9-5.6 11.9-2 11.6-4.2 17.6-8.9 23.9-4.7 6.4-8.8 9.5-18.9 14.1-15.8 7.3-17.9 6.2-8.3-4 7.8-8.2 12.9-17.7 15.6-29.1 2.2-9.1 4.3-29.9 3.8-36.8l-.3-4.5-4.3-.3c-5.7-.4-6.1 1.1-2.8 10.1 6.2 17 .2 40.9-14 55.5-9.4 9.7-9.9 9.3-10.1-10.3-.5-38.5-.6-40.3-3.1-42.1-2.1-1.4-2.5-1.4-4.7 0-4.5 3-4.8 5-1.4 10.4 6.8 11 8 39.9 2 49.2-2.6 3.9-11-6.2-15.2-18.3-3.8-11-5.7-23.6-6.9-45.1-1-19.9-1.6-21.5-6.2-19zm210.6 111.1c.3 1 1.2 7.9 2.1 15.3 2.3 20.6 3 23.2 8.2 30.1 2.6 3.4 6.8 7.7 9.5 9.7 2.6 2 4.8 4.3 4.8 5.1 0 5.8-53.2 46-76.5 57.8-11.8 6-17.5 7.9-27 9.2-4.8.7-9.5 2.3-15.2 5.2l-8.2 4.1-3.3-2c-1.8-1.2-5.3-4.1-7.7-6.6l-4.4-4.4 6.1-11.4c3.3-6.2 9.2-17.4 13.2-24.8 8.4-15.6 17.1-34.2 22.8-48.5 3.9-9.8 10.2-28.6 10.2-30.4 0-.6.4-2.1.9-3.5l1-2.4 7.8 3c15.3 6 31.3 4.9 45.7-3.2 8-4.5 9.2-4.7 10-2.3zm36.9 69c11.8 16.1 20.7 21.8 36.3 23.3 5.3.5 9.8 1.1 10.1 1.4 1.1 1-1.1 4.8-7.8 13.7-11.4 15-13.5 20.1-15.3 37.7-.8 6.8-1.7 12.6-2 13-2.4 2.4-9.6-10-11.6-20-1.3-6.9-.6-16.8 1.6-21 .8-1.6 3.6-3.9 6.3-5.3 5.8-2.9 6.8-5 4.5-9.9-2.4-5-4.1-5.2-8-1.1-6 6.4-10 24.1-8.4 37 1.1 8.7 2 11.1 7.2 19.8 2.2 3.7 3.8 7 3.5 7.3-1.3 1.3-20.4 9-33.7 13.5-20.2 7-33.9 9.2-53.9 8.7-15.4-.3-15.7-.4-21.1-3.5-3-1.7-9.7-4.3-14.9-5.8-13.2-3.7-13.6-4-17.1-15.3-1.7-5.3-3-10.4-3-11.3 0-3 18.4-16 40.9-28.8 23.7-13.6 44.9-28.7 68-48.5 6.8-5.8 12.8-10.6 13.3-10.6.4 0 2.7 2.6 5.1 5.7zM304.2 383.3c.3 16.1.7 48.4.7 71.9l.1 42.8h-6.4c-8.8 0-11.3-1.1-12.5-5.5-.5-2-.8-5-.5-6.8 5.6-43.6 6.2-50.4 7.4-83.9 1.4-39.2 2.1-45.8 5.7-49.3 1.5-1.5 1.7-1.5 3.2 0 1.4 1.3 1.7 5.9 2.3 30.8zm-1 120.4c1.3 1.2 1.5 1.9.7 2.9-1.7 2.1-7.9-1.3-7.9-4.4 0-1.8 4.6-.8 7.2 1.5z"/></svg>